<?xml version="1.0" standalone="no"?>
<!DOCTYPE svg PUBLIC "-//W3C//DTD SVG 20010904//EN"
 "http://www.w3.org/TR/2001/REC-SVG-20010904/DTD/svg10.dtd">
<svg version="1.0" xmlns="http://www.w3.org/2000/svg"
 width="96.000000pt" height="96.000000pt" viewBox="0 0 96.000000 96.000000"
 preserveAspectRatio="xMidYMid meet">

<g transform="translate(0.000000,96.000000) scale(0.100000,-0.100000)"
fill="#000000" stroke="none">
<path d="M63 900 l-33 -20 0 -344 0 -345 22 -15 c13 -9 43 -16 70 -16 48 0 48
0 48 -34 0 -19 9 -44 19 -57 l19 -24 335 0 c315 0 336 1 356 19 21 19 21 26
21 362 l0 343 -22 13 c-13 7 -45 15 -73 18 l-50 5 -6 42 c-10 77 7 73 -353 73
-302 0 -323 -1 -353 -20z m647 -360 l0 -330 -307 2 -308 3 -3 315 c-1 173 0
320 3 327 3 10 73 13 310 13 l305 0 0 -330z"/>
<path d="M320 565 l0 -115 30 0 c29 0 30 1 30 50 l0 50 55 0 c48 0 55 2 55 20
0 18 -7 20 -55 20 -52 0 -55 1 -55 25 0 24 3 25 60 25 53 0 60 2 60 20 0 19
-7 20 -90 20 l-90 0 0 -115z"/>
</g>
</svg>
