<?xml version="1.0" standalone="no"?>
<!DOCTYPE svg PUBLIC "-//W3C//DTD SVG 20010904//EN"
 "http://www.w3.org/TR/2001/REC-SVG-20010904/DTD/svg10.dtd">
<svg version="1.0" xmlns="http://www.w3.org/2000/svg"
 width="500.000000pt" height="500.000000pt" viewBox="0 0 500.000000 500.000000"
 preserveAspectRatio="xMidYMid meet">

<g transform="translate(0.000000,500.000000) scale(0.100000,-0.100000)"
fill="#000000" stroke="none">
<path d="M0 2500 l0 -2500 2500 0 2500 0 0 2500 0 2500 -2500 0 -2500 0 0
-2500z m2715 1451 c336 -71 622 -285 768 -576 88 -177 199 -254 432 -300 170
-34 337 -90 389 -130 47 -36 66 -76 47 -99 -42 -51 -441 -121 -811 -142 -63
-4 -124 -10 -135 -14 -15 -6 -24 -23 -32 -63 -38 -181 -167 -382 -322 -501
-176 -136 -367 -194 -599 -183 -194 9 -357 71 -509 192 -155 125 -258 285
-309 484 l-18 70 -41 5 c-22 3 -83 8 -135 11 -52 3 -176 15 -274 26 -298 33
-470 73 -511 119 -62 68 120 162 430 225 233 46 344 123 432 300 145 289 430
504 763 575 118 26 316 26 435 1z m-1174 -1356 l47 -6 26 -73 c76 -207 255
-405 456 -506 146 -73 263 -100 430 -100 167 0 284 27 430 100 201 101 380
299 456 506 l26 73 47 6 c25 3 63 8 84 11 46 7 47 -2 11 -112 -116 -358 -402
-628 -770 -731 -92 -26 -113 -28 -284 -28 -171 0 -192 2 -284 28 -368 103
-654 373 -770 731 -36 110 -35 119 12 112 20 -3 58 -8 83 -11z m-641 -1380 c0
-24 2 -25 70 -25 68 0 70 1 70 25 0 16 6 25 15 25 12 0 15 -16 15 -80 0 -64
-3 -80 -15 -80 -11 0 -15 11 -15 40 l0 40 -70 0 -70 0 0 -40 c0 -29 -4 -40
-15 -40 -12 0 -15 16 -15 80 0 64 3 80 15 80 9 0 15 -9 15 -25z m388 13 c7 -7
12 -37 12 -68 0 -31 -5 -61 -12 -68 -7 -7 -42 -12 -88 -12 -46 0 -81 5 -88 12
-7 7 -12 37 -12 68 0 31 5 61 12 68 7 7 42 12 88 12 46 0 81 -5 88 -12z m230
0 c16 -16 15 -63 0 -76 -7 -5 -24 -12 -37 -14 -23 -3 -22 -4 15 -30 l39 -28
-30 0 c-17 0 -47 13 -69 30 -52 40 -76 39 -76 0 0 -20 -5 -30 -15 -30 -12 0
-15 16 -15 80 l0 80 88 0 c55 0 92 -4 100 -12z m222 -3 c0 -11 -12 -15 -45
-15 l-45 0 0 -65 c0 -51 -3 -65 -15 -65 -12 0 -15 14 -15 65 l0 65 -40 0 c-29
0 -40 4 -40 15 0 12 18 15 100 15 82 0 100 -3 100 -15z m220 0 c0 -12 -16 -15
-85 -15 -50 0 -85 -4 -85 -10 0 -6 28 -10 65 -10 51 0 65 -3 65 -15 0 -12 -14
-15 -65 -15 -63 0 -65 -1 -65 -25 0 -25 1 -25 85 -25 69 0 85 -3 85 -15 0 -12
-18 -15 -105 -15 l-105 0 0 80 0 80 105 0 c87 0 105 -3 105 -15z m104 -35 c35
-27 66 -50 70 -50 3 0 6 23 6 50 0 43 3 50 20 50 18 0 20 -7 20 -74 0 -41 -5
-78 -10 -81 -6 -4 -44 19 -85 49 l-75 56 0 -55 c0 -42 -3 -55 -15 -55 -12 0
-15 16 -15 80 0 48 4 80 10 80 6 0 39 -22 74 -50z m326 35 c0 -12 -15 -15 -75
-15 -43 0 -75 -4 -75 -10 0 -6 29 -10 68 -10 76 0 92 -9 92 -55 0 -47 -15 -55
-107 -55 -66 0 -83 3 -83 15 0 11 18 15 78 17 69 3 77 5 77 23 0 18 -8 21 -75
25 -69 5 -75 7 -78 28 -7 47 2 52 93 52 69 0 85 -3 85 -15z m70 -65 c0 -64 -3
-80 -15 -80 -12 0 -15 16 -15 80 0 64 3 80 15 80 12 0 15 -16 15 -80z m211 70
c16 -9 19 -22 19 -80 0 -56 -3 -70 -15 -70 -9 0 -15 9 -15 25 0 24 -2 25 -70
25 -68 0 -70 -1 -70 -25 0 -16 -6 -25 -15 -25 -12 0 -15 14 -15 62 0 84 14 98
97 98 35 0 73 -5 84 -10z m313 -6 c22 -22 23 -144 1 -144 -9 0 -15 9 -15 25 0
24 -2 25 -70 25 -68 0 -70 -1 -70 -25 0 -16 -6 -25 -15 -25 -12 0 -15 14 -15
64 0 86 11 96 100 96 49 0 73 -4 84 -16z m246 1 c0 -11 -18 -15 -82 -17 l-83
-3 0 -45 0 -45 63 -3 c61 -3 62 -2 62 23 0 23 -3 25 -50 25 -38 0 -50 4 -50
15 0 13 12 15 68 13 l67 -3 3 -52 3 -53 -85 0 c-117 0 -116 -1 -116 80 0 45 4
70 13 73 6 3 51 6 100 6 70 1 87 -2 87 -14z m220 0 c0 -12 -16 -15 -85 -15
-50 0 -85 -4 -85 -10 0 -6 30 -10 70 -10 56 0 70 -3 70 -15 0 -12 -14 -15 -70
-15 -68 0 -70 -1 -70 -25 0 -25 1 -25 85 -25 69 0 85 -3 85 -15 0 -12 -18 -15
-100 -15 l-100 0 0 80 0 80 100 0 c82 0 100 -3 100 -15z m114 -35 c35 -27 66
-50 70 -50 3 0 6 23 6 50 0 43 3 50 20 50 18 0 20 -7 20 -74 0 -41 -5 -78 -10
-81 -6 -4 -44 19 -85 49 l-75 56 0 -55 c0 -42 -3 -55 -15 -55 -12 0 -15 16
-15 80 0 48 4 80 10 80 6 0 39 -22 74 -50z m336 35 c0 -12 -16 -15 -80 -15
l-80 0 0 -50 0 -50 80 0 c64 0 80 -3 80 -15 0 -12 -17 -15 -90 -15 -102 0
-110 6 -110 80 0 74 8 80 110 80 73 0 90 -3 90 -15z m62 -22 l3 -38 63 -3 62
-3 0 41 c0 33 3 40 20 40 18 0 20 -7 20 -68 0 -40 -5 -73 -12 -80 -7 -7 -42
-12 -85 -12 -58 0 -73 3 -73 15 0 12 14 15 65 15 37 0 65 4 65 10 0 6 -28 10
-64 10 -91 0 -96 3 -96 61 0 36 4 49 14 49 10 0 16 -13 18 -37z"/>
<path d="M2385 3780 c-141 -20 -294 -77 -402 -151 -69 -47 -178 -154 -229
-225 -85 -119 -174 -350 -159 -411 9 -38 21 -26 34 35 45 200 170 395 336 519
179 134 423 201 636 174 117 -15 251 -59 348 -114 94 -53 236 -187 298 -280
53 -79 106 -203 124 -287 14 -65 26 -82 34 -49 15 63 -73 293 -159 413 -51 71
-160 178 -229 225 -75 51 -206 109 -297 130 -98 24 -250 33 -335 21z"/>
<path d="M2330 3666 c-86 -19 -129 -35 -221 -82 -153 -79 -273 -197 -358 -355
-40 -74 -99 -255 -87 -266 3 -4 380 -8 836 -9 730 -3 832 -2 837 12 8 22 -24
139 -62 222 -112 241 -340 423 -597 476 -91 19 -268 20 -348 2z"/>
<path d="M1676 2629 c61 -260 272 -498 527 -594 104 -39 235 -58 347 -51 127
7 205 28 325 86 157 76 273 183 365 339 37 62 100 230 100 265 0 15 -14 16
-137 9 -178 -10 -1192 -10 -1390 0 l-151 7 14 -61z"/>
<path d="M1134 1196 c-3 -8 -4 -29 -2 -48 l3 -33 65 0 65 0 0 45 0 45 -63 3
c-47 2 -64 -1 -68 -12z"/>
<path d="M1360 1190 c0 -19 5 -21 68 -18 52 2 67 6 67 18 0 12 -15 16 -67 18
-63 3 -68 1 -68 -18z"/>
<path d="M2532 1198 c-28 -28 -13 -38 59 -38 67 0 70 1 67 23 -3 19 -10 22
-58 25 -34 2 -60 -2 -68 -10z"/>
<path d="M2843 1203 c-7 -2 -13 -13 -13 -24 0 -17 8 -19 70 -19 62 0 70 2 70
19 0 10 -7 22 -16 25 -18 7 -93 7 -111 -1z"/>
</g>
</svg>
