<?xml version="1.0" standalone="no"?>
<!DOCTYPE svg PUBLIC "-//W3C//DTD SVG 20010904//EN"
 "http://www.w3.org/TR/2001/REC-SVG-20010904/DTD/svg10.dtd">
<svg version="1.0" xmlns="http://www.w3.org/2000/svg"
 width="703.000000pt" height="355.000000pt" viewBox="0 0 703.000000 355.000000"
 preserveAspectRatio="xMidYMid meet">

<g transform="translate(0.000000,355.000000) scale(0.100000,-0.100000)"
fill="#000000" stroke="none">
<path d="M3665 2725 c-16 -9 -40 -28 -52 -43 -37 -44 -26 -45 15 -1 29 32 47
42 87 48 43 8 45 9 15 10 -19 0 -48 -6 -65 -14z"/>
<path d="M3798 2710 c18 -11 41 -34 52 -52 11 -18 20 -29 20 -25 0 5 -7 21
-16 37 -16 26 -62 60 -81 60 -4 0 7 -9 25 -20z"/>
<path d="M3922 2707 c-40 -42 -19 -107 38 -121 22 -6 22 -5 -5 10 -37 21 -45
32 -45 65 0 32 28 59 61 59 29 0 42 -8 57 -35 10 -17 11 -17 12 -3 0 22 -38
48 -70 48 -15 0 -36 -10 -48 -23z"/>
<path d="M3446 2659 c-34 -27 -35 -71 -1 -104 13 -14 31 -25 40 -25 31 0 74
31 75 52 0 4 -11 -4 -25 -17 -29 -30 -58 -32 -85 -5 -27 27 -26 75 2 94 33 23
64 19 87 -10 12 -15 21 -22 21 -15 0 19 -39 51 -64 51 -13 0 -35 -9 -50 -21z"/>
<path d="M4126 2665 c-26 -27 -14 -76 19 -75 5 0 2 5 -7 11 -33 18 -16 69 23
69 9 0 24 -10 34 -22 17 -23 17 -23 2 2 -17 30 -49 37 -71 15z"/>
<path d="M4030 2636 c-5 -13 -17 -29 -27 -35 -10 -6 -13 -11 -7 -11 13 0 39
28 47 53 10 26 -2 20 -13 -7z"/>
<path d="M3581 2592 c0 -24 6 -56 14 -72 16 -30 60 -70 79 -70 6 0 -2 8 -17
19 -42 27 -61 60 -68 116 l-6 50 -2 -43z"/>
<path d="M3872 2592 c-4 -75 -56 -130 -134 -142 -50 -7 -51 -8 -13 -9 22 0 56
7 75 17 45 24 83 90 77 134 l-4 33 -1 -33z"/>
<path d="M4176 2604 c-17 -12 -17 -14 -4 -14 9 0 20 5 23 11 11 17 2 18 -19 3z"/>
<path d="M3275 2555 c-53 -52 -18 -135 56 -135 47 0 79 34 79 82 0 70 -86 103
-135 53z m103 -1 c16 -11 22 -25 22 -51 0 -48 -24 -73 -68 -73 -46 0 -72 24
-72 67 0 62 65 94 118 57z"/>
<path d="M3992 2554 c-52 -19 -127 -92 -142 -140 -7 -19 -10 -38 -7 -40 3 -3
8 9 12 27 10 45 99 131 151 147 120 35 236 -15 290 -124 22 -46 26 -64 22
-118 -8 -126 -94 -213 -226 -226 l-67 -7 55 -1 c147 -4 260 120 248 272 l-5
63 29 -11 c60 -22 119 46 88 101 -8 15 -21 28 -29 31 -7 2 -4 -5 8 -17 40 -40
13 -111 -44 -111 -28 0 -65 35 -65 62 0 24 43 68 66 68 10 0 14 3 11 6 -15 15
-67 -19 -79 -52 l-12 -34 -24 30 c-59 75 -185 109 -280 74z"/>
<path d="M3137 2423 c-11 -11 -8 -48 5 -61 16 -16 43 -15 58 3 13 16 6 65 -10
65 -6 0 -5 -8 1 -19 17 -26 4 -53 -23 -49 -27 3 -38 46 -16 59 7 5 8 9 2 9 -6
0 -14 -3 -17 -7z"/>
<path d="M3465 2401 c-58 -39 -80 -113 -51 -169 50 -96 169 -109 235 -26 12
15 20 36 20 48 -1 20 -2 20 -6 1 -29 -112 -185 -128 -239 -24 -40 79 20 179
109 179 56 0 108 -33 124 -80 9 -27 12 -30 12 -12 1 12 -14 39 -32 59 -29 31
-41 37 -88 40 -42 3 -60 0 -84 -16z"/>
<path d="M3769 2372 c16 -13 22 -25 18 -36 -10 -25 -36 -31 -55 -12 -14 14
-15 19 -3 39 12 21 12 21 -4 6 -32 -31 5 -80 48 -63 18 7 31 39 22 54 -3 5
-16 15 -28 21 -20 9 -20 8 2 -9z"/>
<path d="M3317 2374 c-15 -15 -6 -24 12 -13 26 17 53 4 49 -23 -4 -30 -44 -36
-64 -11 -14 17 -14 16 -4 -5 8 -17 18 -22 37 -20 34 4 52 32 37 56 -11 18 -54
28 -67 16z"/>
<path d="M4414 2336 c-21 -21 -34 -43 -33 -57 1 -22 1 -22 9 4 11 38 29 57 65
73 20 9 24 13 12 14 -11 0 -34 -15 -53 -34z"/>
<path d="M4537 2355 c17 -7 39 -26 49 -40 37 -56 13 -133 -49 -160 -18 -8 -24
-14 -15 -15 26 0 75 47 88 84 20 61 -34 147 -92 146 -7 -1 1 -7 19 -15z"/>
<path d="M3831 2324 c-1 -48 19 -112 50 -156 24 -33 104 -88 128 -88 9 0 -2 9
-24 19 -82 37 -132 109 -145 211 -7 51 -7 52 -9 14z"/>
<path d="M3078 2309 c-39 -20 -88 -82 -88 -109 1 -8 7 -1 14 15 16 37 77 92
112 101 47 12 121 -2 157 -29 94 -71 88 -228 -11 -289 -18 -11 -56 -24 -85
-28 -47 -7 -48 -8 -14 -9 41 -1 101 20 130 47 50 45 71 143 46 209 -14 38 -57
83 -96 99 -46 20 -121 17 -165 -7z"/>
<path d="M4381 2232 c-1 -32 59 -92 91 -91 20 1 18 2 -8 10 -37 10 -62 36 -74
75 -7 26 -8 27 -9 6z"/>
<path d="M3699 2211 c-35 -36 -37 -70 -5 -107 62 -73 179 5 134 89 -29 55 -84
63 -129 18z m110 -7 c42 -54 13 -118 -54 -118 -69 0 -99 71 -50 119 33 34 77
33 104 -1z"/>
<path d="M2981 2150 c0 -19 8 -53 18 -75 20 -45 83 -105 109 -105 11 0 6 6
-13 16 -62 32 -92 75 -105 153 -7 42 -8 43 -9 11z"/>
<path d="M4325 2128 c-49 -26 -58 -69 -24 -112 27 -34 71 -35 104 -1 14 13 25
31 25 39 0 28 -22 64 -47 75 -29 13 -33 13 -58 -1z m70 -23 c30 -29 32 -58 5
-85 -27 -27 -75 -26 -94 2 -23 33 -19 64 10 87 34 27 50 26 79 -4z"/>
<path d="M3382 2088 c-27 -27 -6 -68 35 -68 29 0 48 33 33 60 -12 22 -49 27
-68 8z m62 -13 c9 -25 -5 -45 -30 -45 -14 0 -27 7 -30 15 -10 25 4 45 30 45
13 0 26 -7 30 -15z"/>
<path d="M3512 2080 c-28 -26 -29 -80 -4 -103 10 -10 23 -17 28 -17 4 0 -2 7
-14 16 -47 32 -18 114 40 114 55 0 81 -83 36 -114 -12 -9 -18 -16 -12 -16 20
0 44 37 44 68 0 64 -72 95 -118 52z"/>
<path d="M4534 2079 c-36 -10 -94 -71 -94 -97 0 -10 7 -3 17 16 45 92 163 105
233 26 24 -28 30 -44 30 -82 0 -87 -56 -142 -145 -142 -61 0 -111 44 -130 115
-8 31 -14 40 -14 25 -1 -43 34 -105 73 -130 30 -18 47 -22 92 -18 47 4 61 10
92 41 31 32 36 43 39 94 5 73 -19 116 -80 143 -46 21 -66 23 -113 9z"/>
<path d="M3793 2030 c-31 -19 -63 -66 -63 -92 1 -7 7 1 14 18 18 40 53 72 91
83 20 6 24 9 10 10 -11 1 -34 -8 -52 -19z"/>
<path d="M3915 2039 c38 -11 83 -56 95 -95 6 -21 9 -23 9 -9 2 44 -70 116
-114 114 -13 -1 -10 -4 10 -10z"/>
<path d="M4115 2001 c-45 -20 -70 -60 -70 -113 0 -44 4 -53 37 -84 28 -25 47
-34 73 -34 74 0 125 51 125 125 0 51 -51 105 -105 110 -22 3 -49 1 -60 -4z
m128 -41 c40 -45 38 -101 -7 -146 -27 -27 -42 -34 -74 -34 -79 0 -132 79 -101
151 30 74 128 89 182 29z"/>
<path d="M2935 1955 c-14 -13 -25 -36 -25 -50 0 -28 40 -75 64 -75 54 0 95 55
77 103 -19 51 -77 62 -116 22z m94 -11 c27 -34 26 -50 -4 -79 -29 -30 -58 -32
-85 -5 -39 39 -11 110 44 110 15 0 33 -11 45 -26z"/>
<path d="M1718 1945 c-65 -21 -149 -100 -178 -167 -65 -150 5 -322 158 -391
66 -30 179 -29 245 3 194 92 238 352 82 489 -84 73 -203 99 -307 66z m207 -59
c55 -25 110 -81 131 -132 23 -55 18 -142 -12 -202 -91 -183 -348 -185 -447 -4
-33 62 -37 154 -8 217 22 48 97 118 143 132 59 19 139 15 193 -11z"/>
<path d="M3304 1944 c-131 -47 -210 -208 -170 -346 26 -92 142 -200 212 -197
10 0 -1 7 -26 14 -25 8 -65 31 -88 51 -123 105 -132 296 -18 406 53 51 100 71
179 76 120 7 221 -53 267 -160 27 -64 25 -171 -5 -233 -27 -56 -88 -111 -148
-134 -29 -11 -45 -20 -36 -20 8 -1 38 11 67 25 211 105 200 415 -18 513 -54
25 -154 27 -216 5z"/>
<path d="M580 1660 l0 -290 25 0 25 0 0 120 0 120 100 0 c113 0 139 9 188 64
72 83 41 210 -62 257 -32 15 -66 19 -158 19 l-118 0 0 -290z m258 226 c92 -48
87 -169 -9 -218 -24 -13 -58 -18 -116 -18 l-83 0 0 123 c0 68 3 127 8 131 12
14 166 0 200 -18z"/>
<path d="M1030 1660 l0 -290 25 0 25 0 2 268 3 267 85 0 c49 0 99 -6 118 -14
66 -28 98 -110 67 -175 -23 -48 -72 -77 -144 -83 l-59 -6 96 -128 c83 -111
101 -129 124 -129 16 0 28 3 28 6 0 3 -31 47 -68 97 -37 51 -71 97 -75 104 -5
8 6 16 33 23 52 14 106 61 121 107 18 54 7 126 -26 169 -45 59 -90 74 -232 74
l-123 0 0 -290z"/>
<path d="M2220 1660 l0 -290 25 0 25 0 0 257 c0 141 3 253 6 250 4 -4 54 -118
113 -254 87 -204 110 -249 127 -251 19 -3 33 25 130 252 60 141 112 256 117
256 4 0 7 -115 7 -255 l0 -255 25 0 25 0 0 290 0 290 -42 0 -43 0 -104 -243
c-57 -133 -107 -246 -111 -250 -6 -7 -193 422 -208 476 -3 13 -15 17 -48 17
l-44 0 0 -290z"/>
<path d="M4822 1713 c3 -205 5 -243 21 -270 28 -53 67 -67 187 -67 100 -1 105
0 108 21 3 20 -1 21 -108 25 -159 4 -150 -12 -150 289 l0 239 -31 0 -30 0 3
-237z"/>
<path d="M5347 1667 c-70 -156 -127 -287 -127 -291 0 -4 14 -6 31 -4 30 3 34
9 72 101 l40 98 140 -3 139 -3 42 -95 c37 -85 44 -95 70 -98 15 -2 27 1 25 6
-2 5 -58 136 -124 291 l-119 281 -31 0 -32 0 -126 -283z m218 93 c26 -63 50
-121 52 -127 4 -10 -22 -13 -112 -13 -90 0 -116 3 -112 13 48 119 112 256 117
250 4 -4 28 -60 55 -123z"/>
<path d="M5860 1660 l0 -290 88 0 c151 1 201 19 250 90 40 60 23 157 -37 201
l-31 23 27 28 c36 38 43 119 14 165 -35 55 -85 73 -206 73 l-105 0 0 -290z
m195 240 c109 -25 114 -159 7 -190 -20 -7 -62 -10 -92 -8 l-55 3 -3 89 c-2 49
-1 95 2 103 6 15 81 17 141 3z m53 -264 c69 -36 80 -130 22 -180 -33 -27 -89
-39 -165 -34 l-50 3 -3 104 c-1 58 0 111 3 119 8 20 148 12 193 -12z"/>
<path d="M3721 1904 c0 -11 3 -14 6 -6 3 7 2 16 -1 19 -3 4 -6 -2 -5 -13z"/>
<path d="M4011 1873 c-1 -36 -57 -91 -109 -107 -37 -12 -40 -14 -12 -10 19 4
49 15 66 25 34 21 70 78 61 100 -3 9 -6 6 -6 -8z"/>
<path d="M3730 1870 c0 -42 70 -110 112 -110 7 0 -6 9 -29 21 -29 14 -48 33
-62 62 -12 23 -21 35 -21 27z"/>
<path d="M4321 1844 c-12 -15 -21 -38 -21 -51 0 -34 42 -73 80 -73 38 0 80 39
80 73 0 42 -36 77 -80 77 -30 0 -43 -6 -59 -26z m113 -6 c34 -48 4 -108 -54
-108 -58 0 -88 60 -54 108 21 31 87 31 108 0z"/>
<path d="M3026 1821 c-23 -25 -13 -59 20 -67 14 -4 31 -1 39 6 21 18 19 57 -4
70 -27 14 -35 13 -55 -9z m54 -6 c18 -22 8 -50 -19 -50 -32 0 -49 28 -32 49
17 20 35 20 51 1z"/>
<path d="M4582 1727 c-46 -49 -10 -137 56 -137 34 0 82 34 81 58 0 13 -3 11
-9 -5 -18 -44 -86 -57 -120 -23 -38 38 -21 104 30 123 13 5 13 6 -1 6 -8 1
-25 -9 -37 -22z"/>
<path d="M4678 1734 c13 -9 27 -26 32 -38 7 -17 9 -17 9 -3 1 19 -33 57 -51
57 -7 0 -2 -7 10 -16z"/>
<path d="M2972 1703 c-11 -10 -23 -29 -26 -43 -6 -22 -5 -22 10 5 9 17 22 33
28 37 22 15 55 7 75 -18 15 -19 21 -22 21 -11 0 20 -38 47 -66 47 -12 0 -31
-8 -42 -17z"/>
<path d="M4030 1699 c-79 -32 -129 -107 -130 -192 0 -61 21 -107 70 -151 67
-60 147 -69 233 -25 41 21 97 99 97 133 -1 13 -7 5 -15 -19 -18 -52 -82 -111
-135 -125 -160 -43 -293 124 -220 275 30 62 83 96 163 105 l62 7 -50 1 c-27 0
-61 -4 -75 -9z"/>
<path d="M3820 1685 c-20 -24 3 -65 35 -65 32 0 55 41 35 65 -7 8 -17 15 -23
15 -6 0 -2 -6 9 -14 15 -12 17 -18 8 -33 -17 -27 -51 -29 -59 -2 -5 16 -2 26
11 36 10 7 13 13 7 13 -6 0 -16 -7 -23 -15z"/>
<path d="M4192 1680 c43 -23 82 -71 97 -120 l11 -35 -5 34 c-8 55 -89 142
-130 141 -5 -1 7 -10 27 -20z"/>
<path d="M4362 1643 c-12 -10 -24 -30 -28 -45 -5 -22 0 -34 25 -59 25 -25 37
-30 59 -25 62 15 83 88 36 125 -33 26 -65 27 -92 4z m86 -9 c42 -29 24 -97
-30 -109 -21 -5 -33 -1 -52 19 -31 31 -32 45 -5 80 23 29 54 33 87 10z"/>
<path d="M3071 1626 c-16 -40 -68 -49 -101 -16 -11 11 -20 16 -20 12 0 -17 37
-42 61 -42 31 0 65 23 72 50 7 28 -1 25 -12 -4z"/>
<path d="M3732 1543 c-7 -2 -17 -14 -23 -26 -12 -22 -12 -22 13 1 35 32 90 30
117 -4 12 -15 21 -22 21 -17 0 5 -10 19 -23 31 -22 21 -73 28 -105 15z"/>
<path d="M4600 1531 c-16 -31 4 -63 37 -59 34 4 52 32 37 56 -16 26 -60 28
-74 3z m65 -11 c8 -27 -1 -40 -30 -40 -27 0 -41 26 -24 46 17 20 47 17 54 -6z"/>
<path d="M3016 1505 c-38 -39 -19 -106 33 -113 29 -4 71 23 70 46 0 13 -2 12
-9 -5 -18 -44 -91 -38 -105 7 -4 13 0 31 10 46 22 34 74 30 92 -6 8 -16 13
-19 13 -9 0 41 -73 65 -104 34z"/>
<path d="M4301 1504 c0 -11 3 -14 6 -6 3 7 2 16 -1 19 -3 4 -6 -2 -5 -13z"/>
<path d="M3691 1472 c-1 -30 24 -78 44 -86 36 -13 82 -6 103 17 12 13 22 27
22 31 0 5 -9 -3 -21 -18 -16 -20 -29 -26 -58 -26 -44 0 -69 23 -81 72 -6 25
-8 27 -9 10z"/>
<path d="M3861 1464 c0 -11 3 -14 6 -6 3 7 2 16 -1 19 -3 4 -6 -2 -5 -13z"/>
<path d="M4415 1461 c-39 -17 -75 -64 -62 -78 4 -3 7 0 7 9 0 20 37 53 80 71
19 9 31 16 25 16 -5 0 -28 -8 -50 -18z"/>
<path d="M4506 1456 c43 -19 64 -53 64 -101 0 -48 -21 -82 -64 -101 -20 -9
-25 -13 -12 -14 10 0 33 15 52 34 29 29 34 41 34 81 0 40 -5 52 -34 81 -19 19
-42 34 -52 34 -13 -1 -8 -5 12 -14z"/>
<path d="M3574 1400 c69 -21 90 -90 40 -129 -43 -34 -86 -25 -112 24 -9 16
-11 17 -12 3 0 -21 46 -58 72 -58 27 0 74 26 82 45 17 46 4 91 -35 110 -15 8
-36 15 -46 14 -11 0 -6 -4 11 -9z"/>
<path d="M3388 1393 c12 -2 32 -2 45 0 12 2 2 4 -23 4 -25 0 -35 -2 -22 -4z"/>
<path d="M3504 1375 c-9 -14 -14 -28 -10 -32 3 -3 6 -1 6 5 0 6 10 20 22 32
12 11 17 20 10 20 -6 0 -19 -11 -28 -25z"/>
<path d="M3116 1359 c-51 -40 -21 -131 43 -128 l26 2 -26 4 c-63 10 -81 93
-26 123 24 13 30 13 55 0 34 -20 42 -71 15 -103 l-18 -22 23 19 c32 27 30 78
-4 105 -15 12 -34 21 -44 21 -10 0 -29 -9 -44 -21z"/>
<path d="M4341 1354 c0 -11 3 -14 6 -6 3 7 2 16 -1 19 -3 4 -6 -2 -5 -13z"/>
<path d="M4258 1339 c-10 -5 -18 -15 -18 -20 0 -6 7 -3 16 5 19 19 26 20 42 4
19 -19 14 -46 -10 -54 -15 -4 -26 -1 -36 12 -8 11 -12 13 -10 5 2 -8 12 -19
21 -25 38 -24 74 35 42 68 -19 19 -24 19 -47 5z"/>
<path d="M3862 1318 c-27 -27 -6 -68 35 -68 29 0 48 33 33 60 -12 22 -49 27
-68 8z m62 -14 c8 -21 -11 -44 -36 -44 -21 0 -33 22 -24 45 7 20 52 19 60 -1z"/>
<path d="M4350 1320 c1 -31 58 -81 92 -80 7 1 -2 7 -19 15 -18 8 -42 29 -53
47 -11 18 -20 26 -20 18z"/>
<path d="M3268 1297 c-53 -45 -63 -102 -25 -158 32 -48 89 -67 139 -46 90 38
103 159 24 211 -37 24 -105 21 -138 -7z m138 -5 c97 -78 16 -231 -102 -192
-84 28 -98 139 -24 197 23 19 101 16 126 -5z"/>
<path d="M3718 1303 c7 -3 16 -2 19 1 4 3 -2 6 -13 5 -11 0 -14 -3 -6 -6z"/>
<path d="M3666 1278 c-9 -12 -16 -33 -16 -46 0 -31 43 -72 75 -72 32 0 75 41
75 72 0 27 -26 68 -42 68 -6 0 -2 -10 10 -23 12 -13 22 -33 22 -45 0 -29 -34
-62 -65 -62 -31 0 -65 33 -65 62 0 12 10 32 22 45 12 13 16 23 10 23 -6 0 -18
-10 -26 -22z"/>
<path d="M4130 1250 c-16 -30 4 -62 37 -58 48 6 57 64 12 75 -8 3 -7 0 4 -7
22 -14 22 -49 1 -57 -18 -7 -45 6 -51 24 -2 6 3 18 12 27 9 9 12 16 6 16 -6 0
-15 -9 -21 -20z"/>
<path d="M5348 1263 c6 -2 18 -2 25 0 6 3 1 5 -13 5 -14 0 -19 -2 -12 -5z"/>
<path d="M5300 1250 c0 -5 7 -7 15 -4 8 4 15 8 15 10 0 2 -7 4 -15 4 -8 0 -15
-4 -15 -10z"/>
<path d="M5565 1250 c3 -5 8 -10 11 -10 2 0 4 5 4 10 0 6 -5 10 -11 10 -5 0
-7 -4 -4 -10z"/>
<path d="M6071 1237 c-13 -21 -12 -21 5 -5 10 10 16 20 13 22 -3 3 -11 -5 -18
-17z"/>
<path d="M5980 1230 c-6 -11 -8 -20 -6 -20 3 0 10 9 16 20 6 11 8 20 6 20 -3
0 -10 -9 -16 -20z"/>
<path d="M6133 1228 c-15 -20 -25 -38 -20 -38 3 0 12 11 21 25 17 26 16 35 -1
13z"/>
<path d="M3998 1223 c6 -2 18 -2 25 0 6 3 1 5 -13 5 -14 0 -19 -2 -12 -5z"/>
<path d="M5267 1188 c-13 -24 -27 -54 -31 -68 -3 -15 0 -11 10 10 9 19 21 42
28 50 14 16 28 50 22 50 -2 0 -15 -19 -29 -42z"/>
<path d="M3536 1201 c-21 -23 -14 -57 13 -66 45 -14 76 32 45 66 -9 10 -22 19
-29 19 -7 0 -20 -9 -29 -19z m58 -13 c8 -14 7 -21 -6 -34 -30 -30 -75 9 -48
42 16 18 39 15 54 -8z"/>
<path d="M3917 1190 c-42 -36 -60 -77 -54 -121 4 -32 4 -32 5 7 2 51 36 103
82 126 19 10 27 18 18 18 -10 0 -33 -13 -51 -30z"/>
<path d="M4070 1202 c19 -9 45 -32 57 -51 13 -19 23 -28 23 -21 0 19 -75 90
-96 90 -12 0 -7 -6 16 -18z"/>
<path d="M5648 1201 c-9 -10 -19 -29 -22 -42 -6 -21 -5 -21 9 4 9 15 23 27 33
28 10 0 12 3 4 6 -6 2 -10 9 -6 14 9 16 -1 10 -18 -10z"/>
<path d="M4222 1187 c-30 -32 -29 -87 1 -115 52 -49 137 -13 137 57 0 70 -91
109 -138 58z m108 -7 c24 -24 26 -67 4 -98 -19 -27 -78 -30 -106 -5 -23 20
-24 80 -1 105 22 24 77 24 103 -2z"/>
<path d="M5308 1193 c7 -3 16 -2 19 1 4 3 -2 6 -13 5 -11 0 -14 -3 -6 -6z"/>
<path d="M5786 1172 c-3 -5 1 -9 9 -9 8 0 12 4 9 9 -3 4 -7 8 -9 8 -2 0 -6 -4
-9 -8z"/>
<path d="M5939 1154 c-5 -15 -8 -29 -5 -31 2 -2 8 10 14 26 13 38 5 41 -9 5z"/>
<path d="M6022 1160 c-16 -26 -16 -44 1 -29 7 7 14 21 14 31 2 23 1 23 -15 -2z"/>
<path d="M6092 1160 c-15 -25 -15 -31 1 -24 7 2 13 13 14 24 2 25 1 25 -15 0z"/>
<path d="M5497 1163 c-4 -3 -7 -11 -7 -17 0 -6 5 -5 12 2 6 6 9 14 7 17 -3 3
-9 2 -12 -2z"/>
<path d="M5720 1159 c0 -5 5 -7 10 -4 6 3 10 8 10 11 0 2 -4 4 -10 4 -5 0 -10
-5 -10 -11z"/>
<path d="M5980 1149 c-7 -11 -10 -23 -7 -25 2 -2 9 7 15 21 14 30 7 33 -8 4z"/>
<path d="M6267 1163 c-10 -9 -9 -23 1 -23 5 0 9 7 9 15 0 17 -1 18 -10 8z"/>
<path d="M6312 1158 c-19 -19 -15 -58 6 -57 10 0 12 3 5 6 -16 6 -17 35 -1 51
7 7 10 12 7 12 -3 0 -10 -5 -17 -12z"/>
<path d="M6415 1160 c-4 -6 -10 -8 -14 -5 -5 2 -13 -8 -20 -23 -10 -24 -10
-25 3 -8 8 10 19 16 23 13 5 -3 14 3 21 14 7 10 8 19 3 19 -6 0 -13 -5 -16
-10z"/>
<path d="M6530 1155 c-7 -9 -11 -17 -9 -20 3 -2 10 5 17 15 14 24 10 26 -8 5z"/>
<path d="M5686 1144 c-9 -24 -2 -26 12 -4 7 11 8 20 3 20 -5 0 -12 -7 -15 -16z"/>
<path d="M5406 1134 c-7 -19 0 -34 17 -34 9 0 8 3 -1 8 -7 5 -10 16 -6 25 3 9
4 17 1 17 -3 0 -8 -7 -11 -16z"/>
<path d="M5754 1135 c-7 -17 3 -35 19 -35 9 0 8 3 -1 8 -7 5 -10 16 -6 25 3 9
3 17 0 17 -4 0 -9 -7 -12 -15z"/>
<path d="M6221 1123 c-10 -26 -10 -27 4 -9 8 11 15 23 15 28 0 15 -7 8 -19
-19z"/>
<path d="M5331 1123 c-1 -16 5 -23 17 -23 10 0 13 3 6 8 -6 4 -14 14 -17 22
-4 10 -6 8 -6 -7z"/>
<path d="M6143 1126 c1 -11 9 -21 17 -23 10 -3 11 -2 4 4 -6 4 -14 15 -17 23
-5 11 -6 9 -4 -4z"/>
<path d="M5480 1115 c0 -8 4 -15 10 -15 5 0 7 7 4 15 -4 8 -8 15 -10 15 -2 0
-4 -7 -4 -15z"/>
<path d="M5610 1121 c0 -6 4 -13 10 -16 6 -3 7 1 4 9 -7 18 -14 21 -14 7z"/>
<path d="M6440 1117 c0 -10 8 -17 18 -17 9 0 13 4 7 8 -5 4 -13 11 -17 16 -5
5 -8 2 -8 -7z"/>
<path d="M3502 1100 c-23 -21 -39 -66 -28 -77 3 -4 6 3 6 14 0 11 9 32 21 47
57 72 167 -15 114 -91 -8 -11 -26 -24 -40 -27 -27 -7 -80 15 -88 36 -3 7 -6 8
-6 2 -2 -22 40 -48 76 -48 61 0 100 63 71 117 -26 50 -87 63 -126 27z"/>
<path d="M5897 1109 c7 -7 15 -10 18 -7 3 3 -2 9 -12 12 -14 6 -15 5 -6 -5z"/>
<path d="M6401 1104 c0 -11 3 -14 6 -6 3 7 2 16 -1 19 -3 4 -6 -2 -5 -13z"/>
<path d="M6517 1109 c7 -7 15 -10 18 -7 3 3 -2 9 -12 12 -14 6 -15 5 -6 -5z"/>
<path d="M4152 1082 c-1 -19 -10 -50 -19 -69 -44 -93 -189 -99 -243 -10 -11
18 -20 27 -20 21 0 -19 40 -63 70 -79 44 -23 111 -19 151 8 42 28 72 85 66
129 l-4 33 -1 -33z"/>
<path d="M3735 1068 c-41 -22 -56 -67 -39 -113 8 -19 55 -45 82 -45 26 0 72
37 72 58 -1 14 -3 13 -12 -3 -26 -49 -69 -58 -112 -24 -50 39 -29 108 40 129
21 6 23 8 9 9 -11 0 -29 -5 -40 -11z"/>
<path d="M3820 1050 c11 -11 20 -25 20 -32 0 -6 3 -8 6 -5 8 8 -23 57 -36 57
-6 0 -1 -9 10 -20z"/>
<path d="M6000 1040 c-9 -6 -10 -10 -3 -10 6 0 15 5 18 10 8 12 4 12 -15 0z"/>
<path d="M6060 1036 c7 -7 13 -7 20 0 6 6 3 10 -10 10 -13 0 -16 -4 -10 -10z"/>
</g>
</svg>
